# xmcd CD database file
#
# Track frame offsets:
#	150
#	24590
#	45537
#	69915
#
# Disc length: 1211 seconds
#
# Revision: 0
# Processed by: cddbd v1.5PL3 Copyright (c) Steve Scherf et al.
# Submitted via: CDex 1.50beta8
#
DISCID=2904b904
DTITLE=永井真理子 - 泣きたい日もある
DYEAR=1992
DGENRE=JPop
TTITLE0=泣きたい日もある
TTITLE1=Keeo On "Keeping On"
TTITLE2=泣きたい日もある（カラオケ）
TTITLE3=Keeo On "Keeping On"（カラオケ）
EXTD=YEAR: 1992
EXTT0=
EXTT1=
EXTT2=
EXTT3=
PLAYORDER=
